<?xml version="1.0" encoding="utf-8"?><svg xmlns="http://www.w3.org/2000/svg" xmlns:xlink="http://www.w3.org/1999/xlink"><symbol viewBox="0 0 22 22" id="arrow-next" xmlns="http://www.w3.org/2000/svg"><path d="M16.735 10.215L6.842.325a1.114 1.114 0 00-1.573 0 1.108 1.108 0 000 1.57l9.108 9.104-9.107 9.106a1.11 1.11 0 000 1.57 1.114 1.114 0 001.573 0l9.893-9.89a1.12 1.12 0 00-.001-1.57z"/></symbol><symbol viewBox="0 0 22 22" id="arrow-prev" xmlns="http://www.w3.org/2000/svg"><g clip-path="url(#ba)"><path d="M5.265 11.785l9.893 9.89a1.114 1.114 0 001.573 0 1.108 1.108 0 000-1.57l-9.109-9.104 9.108-9.106a1.11 1.11 0 000-1.57 1.114 1.114 0 00-1.573 0l-9.893 9.89a1.12 1.12 0 00.001 1.57z"/></g><defs><clipPath id="ba"><path transform="rotate(-180 11 11)" d="M0 0h22v22H0z"/></clipPath></defs></symbol><symbol viewBox="0 0 45.701 45.7" id="checked" xmlns="http://www.w3.org/2000/svg"><path d="M20.687 38.332a5.308 5.308 0 01-7.505 0L1.554 26.704A5.306 5.306 0 119.059 19.2l6.928 6.927a1.344 1.344 0 001.896 0L36.642 7.368a5.308 5.308 0 017.505 7.504l-23.46 23.46z"/></symbol><symbol viewBox="0 0 39 39" id="close" xmlns="http://www.w3.org/2000/svg"><path d="M38.177 3.321l.177-.177-.177-.176L36.032.823l-.177-.177-.177.177L19.5 17.003 3.322.823 3.145.646l-.177.177L.823 2.968l-.177.176.177.177 16.178 16.18L.823 35.679l-.177.177.177.176 2.145 2.145.177.176.177-.176L19.5 21.999l16.178 16.178.177.176.177-.176 2.145-2.145.177-.176-.177-.177L21.997 19.5l16.18-16.18z"/></symbol><symbol viewBox="0 0 469.785 469.785" id="error" xmlns="http://www.w3.org/2000/svg"><path d="M285.368 234.691L459.36 60.697c13.895-13.88 13.895-36.395 0-50.275-13.881-13.895-36.38-13.895-50.275 0L235.091 184.416 61.082 10.421c-13.866-13.895-36.395-13.895-50.275 0-13.88 13.881-13.88 36.395 0 50.275l174.01 173.995L10.421 409.085c-13.895 13.895-13.895 36.395 0 50.275 6.94 6.955 16.043 10.425 25.145 10.425 9.088 0 18.19-3.47 25.132-10.425L235.09 284.967l173.995 173.995c6.955 6.94 16.043 10.425 25.145 10.425a35.46 35.46 0 0025.131-10.425c13.895-13.88 13.895-36.38 0-50.275L285.367 234.691z"/></symbol><symbol viewBox="0 0 18 18" id="facebook" xmlns="http://www.w3.org/2000/svg"><g clip-path="url(#fa)"><path d="M11.998 2.989h1.643V.127A21.22 21.22 0 0011.247 0c-2.37 0-3.992 1.49-3.992 4.23v2.52H4.64v3.2h2.615V18h3.205V9.95h2.509l.398-3.2H10.46V4.547c.001-.924.25-1.557 1.539-1.557z"/></g><defs><clipPath id="fa"><path d="M0 0h18v18H0z"/></clipPath></defs></symbol><symbol viewBox="0 0 18 18" id="instagram" xmlns="http://www.w3.org/2000/svg"><path d="M13.033 0H4.966A4.973 4.973 0 000 4.967v8.066A4.973 4.973 0 004.967 18h8.066A4.973 4.973 0 0018 13.033V4.967A4.973 4.973 0 0013.033 0zm3.37 13.033a3.374 3.374 0 01-3.37 3.37H4.967a3.374 3.374 0 01-3.37-3.37V4.967a3.374 3.374 0 013.37-3.37h8.066a3.374 3.374 0 013.37 3.37v8.066z"/><path d="M9 4.362A4.643 4.643 0 004.362 9 4.643 4.643 0 009 13.638 4.643 4.643 0 0013.638 9 4.643 4.643 0 009 4.362zm0 7.679A3.044 3.044 0 015.959 9a3.044 3.044 0 013.04-3.041 3.044 3.044 0 013.042 3.04A3.044 3.044 0 019 12.042zm4.833-9.033a1.176 1.176 0 00-1.171 1.171c0 .308.125.61.343.828.218.218.52.343.828.343.309 0 .61-.125.828-.343a1.176 1.176 0 000-1.657 1.176 1.176 0 00-.828-.342z"/></symbol><symbol viewBox="0 0 292 274" id="leaf-big" xmlns="http://www.w3.org/2000/svg"><path fill-rule="evenodd" clip-rule="evenodd" d="M127.402 91.405c-7.806 49.066-24.468 96.441-61.125 136.236C48.802 246.518 23.656 266.411 0 274h100.353c30.719 0 90.815-15.669 122.587-49.842C280.551 161.528 279.642 92.859 292 0h-86.427c-21.852 0-63.9 1.168-78.171 91.405z"/></symbol><symbol viewBox="0 0 233 219" id="leaf-medium" xmlns="http://www.w3.org/2000/svg"><path fill-rule="evenodd" clip-rule="evenodd" d="M101.66 73.058c-6.229 39.216-19.524 77.082-48.775 108.888C38.941 197.034 18.875 212.934 0 219h80.076c24.512 0 72.466-12.524 97.818-39.837C223.864 129.105 223.139 74.219 233 0h-68.964C146.6 0 113.047.933 101.66 73.058z"/></symbol><symbol viewBox="0 0 95 89" id="leaf-small" xmlns="http://www.w3.org/2000/svg"><path fill-rule="evenodd" clip-rule="evenodd" d="M41.45 29.69c-2.54 15.937-7.961 31.326-19.887 44.252C15.877 80.073 7.696 86.535 0 89h32.649c9.994 0 29.546-5.09 39.883-16.19C91.275 52.468 90.979 30.163 95 0H66.882c-7.11 0-20.79.38-25.433 29.69z"/></symbol><symbol viewBox="0 0 526 7" id="line-horizontal" xmlns="http://www.w3.org/2000/svg"><path d="M424.61.451c-.487.397-1.688.246-2.321.611 2.532-.182 4.716-.646 7.184-.54 1.136.052 2.995-.138 3.125.338.129.476-1.746.301-2.744.397-.398.043-.812.047-1.25.09-.438.044-1.331-.075-1.274.25.046.14.159.273.33.387.17.115.394.208.652.272a2.695 2.695 0 001.542-.067 6.51 6.51 0 00.666-.294c1.761-.82 3.157-.773 4.245.15.674 0 .698-.21.893-.356 1.16-.873 1.16-.873 3.19-.198.183.073.399.124.63.15a3.1 3.1 0 00.701-.004l3.669-.448c-.901-.464-2.435-.159-3.466-.476.82-.276 1.824-.39 2.808-.317 5.471.032 10.918-.175 16.372-.274a19.258 19.258 0 013.361.135c1.347.208 2.792.208 4.139 0a13.833 13.833 0 013.539-.103c1.332.159 2.858 0 3.953.08 2.76.178 5.301-.243 7.971-.092 2.543.134 5.106.151 7.655.052 1.518-.056 2.995.099 4.423.063 4.554-.103 9.091.08 13.637.067 5.925-.023 11.851 0 17.76.227 0 .396-.812.396-1.282.527-.471.131-1.104.313-.934.627.097.166.901.369 0 .511a3.08 3.08 0 01-.905.018 2.143 2.143 0 01-.767-.236c-.869-.726-2.354-.622-4.059-.54a22.219 22.219 0 01-4.415-.086c-1.137-.175-2.038.063-3.361.305 2.095.234 3.767.524 4.676 1.19.284.202 1.031.103 1.623.083.341 0 .763-.04.812.14.049.178-.292.213-.641.257-2.785.369-8.117-.15-10.139-.992-.395-.184-.896-.307-1.436-.35a5.373 5.373 0 00-1.591.104c-1.786.508-4.059.266-5.901.6-.617.11-1.859.174-2.305-.147-.447-.322.868-.35 1.136-.69h-5.552c.933-.524 2.435-.532 3.385-.929-1.916-.063-3.629 0-4.822.488-2.167.869-4.87.428-7.394.484a1.505 1.505 0 01-.319-.023 1.058 1.058 0 01-.271-.085.486.486 0 01-.175-.133.208.208 0 01-.047-.156c-.041-.238.3-.396.909-.456.86-.071 1.761-.103 2.654-.202a63.808 63.808 0 01-3.352-.337c-1.104-.179-2.313-.175-1.916.535.333.607-1.258 1.083-2.93.936a2.618 2.618 0 01-.381-.043c-.155-.853-2.013-.397-3.069-.488-1.363-.131-2.808-.135-4.058-.44a3.034 3.034 0 00-.812-.107c-.285 0-.565.037-.812.107-.543.146-.284.325-.073.483.504.373-.276.453-.917.631-2.605.722-5.625.793-8.701.77h-2.72c.382.301 1.453.035 1.413.325-.041.29-.812.23-1.331.285-1.794.19-3.58.326-5.374-.023a4.791 4.791 0 00-2.029.051 10.69 10.69 0 01-2.225.254c-.77.009-1.535-.06-2.248-.202.106-.397 1.307-.266 1.819-.563-5.682-.25-11.145-.42-16.121.793-.576.143-1.518.523-1.68-.135-.065-.246-.601-.182-.958-.155a2.57 2.57 0 00-.876.19c-2.435 1.405-6.25 1.476-10.155 1.298-4.277-.195-8.027.57-12.11.706-5.26.174-10.512-.028-15.763.067-2.793-.793-5.471-.218-8.174.083-.266.03-.539.043-.812.036-8.88-.218-17.695.278-26.575.238-9.643-.043-19.302.127-28.962.107-4.992 0-10-.075-14.984.028-5.105.103-10.219.143-15.316.091-11.088-.11-22.144.35-33.215.17-8.117-.134-16.186-.023-24.27-.023a9.79 9.79 0 01-1.68-.056c-2.435-.527-4.935-.202-7.403-.02a14.125 14.125 0 01-3.555-.047c-2.094-.397-4.132-.214-6.323-.17-8.572.182-17.16.043-25.748-.06-.811 0-1.55-.056-2.329-.056-15.698 0-31.397-.099-47.079 0-14.61.104-29.27.076-43.905.163a7531.93 7531.93 0 00-49.205.456c-8.588.103-17.168.23-25.763.262a176.568 176.568 0 01-15.163-.654C2.721 6 .432 4.953.221 3.355a.732.732 0 00-.04-.456c-.666-.746.632-1.115 1.931-1.595C5.375.08 9.588.352 13.565.221c6.754 1.135 13.799.512 20.812.516 2.127 0 4.262-.024 6.388-.024C56.115.701 71.431.396 86.748.118a714.49 714.49 0 0129.156.064c11.681.277 23.434.162 35.155.21 14.919.067 29.838.095 44.757.198 20.95.143 41.908.187 62.858.333 6.307.044 12.622.028 18.913 0 13.206 0 26.421-.071 39.627-.083 5.544 0 11.064-.159 16.6-.174 12.646-.04 25.3 0 37.93-.19 8.239-.124 16.47-.068 24.7-.155 6.145-.064 12.346.079 18.523.02 3.182-.013 6.356-.215 9.643.11z"/></symbol><symbol viewBox="0 0 7 369" id="line-vertical" xmlns="http://www.w3.org/2000/svg"><path d="M.451 71.127c.397.342.246 1.184.611 1.628-.182-1.776-.646-3.308-.54-5.039.052-.797-.138-2.101.338-2.192.476-.091.301 1.224.397 1.924.043.28.047.57.09.877.044.308-.075.934.25.894a.785.785 0 00.387-.231 1.28 1.28 0 00.272-.458 1.355 1.355 0 00-.067-1.082 4.02 4.02 0 00-.294-.466c-.82-1.236-.773-2.216.15-2.979 0-.472-.21-.49-.356-.626-.873-.814-.873-.814-.198-2.238.073-.129.124-.28.15-.442.025-.162.024-.33-.004-.492l-.448-2.573c-.464.632-.159 1.708-.476 2.431-.276-.575-.39-1.28-.317-1.97.032-3.838-.175-7.659-.274-11.486a9.518 9.518 0 01.135-2.357 6.824 6.824 0 000-2.904 6.845 6.845 0 01-.103-2.483c.159-.934 0-2.004.08-2.773.178-1.936-.243-3.718-.092-5.592.134-1.783.151-3.581.052-5.37-.056-1.064.099-2.1.063-3.103-.103-3.194.08-6.377.067-9.566C.301 8.302.324 4.145.551 0c.396 0 .396.57.527.9.131.33.313.774.627.655.166-.069.369-.633.511 0 .05.204.057.425.018.634a1.21 1.21 0 01-.236.539c-.726.609-.622 1.65-.54 2.847.119 1.03.089 2.084-.086 3.097-.175.798.063 1.43.305 2.358.234-1.47.524-2.642 1.19-3.28.202-.2.103-.723.083-1.139 0-.24-.04-.535.14-.57.178-.034.213.206.257.45.369 1.954-.15 5.695-.992 7.113a2.311 2.311 0 00-.35 1.007c-.044.379-.008.768.104 1.116.508 1.253.266 2.848.6 4.14.11.433.174 1.304-.147 1.617-.322.314-.35-.609-.69-.797v3.895c-.524-.655-.532-1.708-.929-2.374-.063 1.343 0 2.545.488 3.382.869 1.52.428 3.416.484 5.187a.752.752 0 01-.023.224.598.598 0 01-.085.19.391.391 0 01-.133.123.272.272 0 01-.156.033c-.238.028-.396-.21-.456-.638-.071-.604-.103-1.236-.202-1.862A31.896 31.896 0 01.523 31.2c-.179.774-.175 1.623.535 1.344.607-.234 1.083.882.936 2.055-.005.092-.02.182-.043.268-.853.108-.397 1.412-.488 2.152-.131.957-.135 1.97-.44 2.847-.07.174-.107.37-.107.57 0 .2.037.396.107.57.146.38.325.199.483.05.373-.352.453.194.631.644.722 1.828.793 3.946.77 6.104v1.908c.301-.268.035-1.02.325-.991.29.029.23.57.285.934.19 1.258.326 2.511-.023 3.77a2.388 2.388 0 00.051 1.423 5.38 5.38 0 01.254 1.561 5.47 5.47 0 01-.202 1.577c-.397-.075-.266-.917-.563-1.276-.25 3.986-.42 7.818.793 11.309.143.404.523 1.065-.135 1.178-.246.046-.182.422-.155.672.017.229.084.444.19.616 1.405 1.708 1.476 4.384 1.298 7.123-.195 3 .57 5.632.706 8.496.174 3.69-.028 7.374.067 11.058-.793 1.959-.218 3.838.083 5.734.03.187.043.378.036.57-.218 6.229.278 12.413.238 18.643-.043 6.764.127 13.54.107 20.317 0 3.502-.075 7.015.028 10.511.103 3.582.143 7.169.091 10.745-.11 7.779.35 15.534.17 23.301-.134 5.694-.023 11.354-.023 17.026.03.394.01.793-.056 1.179-.527 1.708-.202 3.462-.02 5.193a6.983 6.983 0 01-.047 2.494c-.397 1.469-.214 2.898-.17 4.436.182 6.013.043 12.037-.06 18.062 0 .569-.056 1.087-.056 1.634 0 11.013-.099 22.025 0 33.027.104 10.249.076 20.533.163 30.8.091 11.508.258 23.016.456 34.519.103 6.024.23 12.043.262 18.073a87.187 87.187 0 01-.654 10.637c-.346 3.029-1.393 4.635-2.991 4.783a1.022 1.022 0 00-.456.029c-.746.467-1.115-.445-1.595-1.356-1.225-2.289-.952-5.244-1.083-8.034 1.135-4.738.512-9.68.516-14.6 0-1.492-.024-2.99-.024-4.482-.012-10.767-.317-21.513-.595-32.258-.17-6.833-.162-13.615.064-20.453.277-8.194.162-16.44.21-24.662.067-10.466.095-20.932.198-31.398.143-14.697.187-29.4.333-44.097a814.89 814.89 0 000-13.267c0-9.265-.071-18.535-.083-27.799 0-3.89-.159-7.762-.174-11.645-.04-8.872 0-17.749-.19-26.609C.351 102.434.407 96.66.32 90.886c-.063-4.31.08-8.661.02-12.994-.012-2.233-.214-4.459.111-6.765z"/></symbol><symbol viewBox="0 0 128 128" id="loading" xmlns="http://www.w3.org/2000/svg"><g><circle cx="16" cy="64" r="16"/><circle cx="16" cy="64" r="16" fill-opacity=".67" transform="rotate(45 64 64)"/><circle cx="16" cy="64" r="16" fill-opacity=".42" transform="rotate(90 64 64)"/><circle cx="16" cy="64" r="16" fill-opacity=".2" transform="rotate(135 64 64)"/><circle cx="16" cy="64" r="16" fill-opacity=".12" transform="rotate(180 64 64)"/><circle cx="16" cy="64" r="16" fill-opacity=".12" transform="rotate(225 64 64)"/><circle cx="16" cy="64" r="16" fill-opacity=".12" transform="rotate(270 64 64)"/><circle cx="16" cy="64" r="16" fill-opacity=".12" transform="rotate(315 64 64)"/><animateTransform attributeName="transform" type="rotate" values="0 64 64;315 64 64;270 64 64;225 64 64;180 64 64;135 64 64;90 64 64;45 64 64" calcMode="discrete" dur="720ms" repeatCount="indefinite"/></g></symbol><symbol viewBox="0 0 77 22" id="logo" xmlns="http://www.w3.org/2000/svg"><g clip-path="url(#na)"><mask id="na" maskUnits="userSpaceOnUse" x="66" y="0" width="8" height="8"><path d="M66.092.335h7.605v7.352h-7.605V.335z"/></mask><g mask="url(#na)"><path opacity=".9" fill-rule="evenodd" clip-rule="evenodd" d="M69.41 2.788c-.203 1.316-.637 2.587-1.592 3.655-.455.506-1.11 1.04-1.726 1.244h2.614c.8 0 2.365-.42 3.192-1.338 1.5-1.68 1.477-3.522 1.799-6.014h-2.251c-.57 0-1.664.031-2.036 2.453z"/></g><path fill-rule="evenodd" clip-rule="evenodd" d="M46.931 17.165c.4-1.595.92-3.232 1.52-4.72.647 1.335 1.17 3 1.619 4.72h-3.139zm3.664-7.652h-3.567c-1.485 2.74-2.676 6.874-3.672 11.892h2.762c.097-.71.219-1.464.387-2.244h4.015c.166.78.31 1.556.432 2.244h3.387c-.919-4.326-2.381-9.155-3.744-11.892z"/><mask id="nb" maskUnits="userSpaceOnUse" x="0" y="4" width="64" height="18"><path d="M0 4.857h63.493v16.526H0V4.857z"/></mask><g mask="url(#nb)"><path fill-rule="evenodd" clip-rule="evenodd" d="M60.13 7.326H12.606v13.841c-.243.15-.95.216-1.505.216-1.873 0-2.55-.622-3.548-2.472l-4.809-8.79v11.017H0V5.082c.244-.147.946-.225 1.503-.225 1.873 0 2.551.626 3.55 2.47l4.83 8.777V5.11h53.61c0 1.56-2.585 2.216-3.364 2.216z"/></g><path fill-rule="evenodd" clip-rule="evenodd" d="M70.296 19.688c-1.155 0-1.853-.105-2.212-.673-.314-.492-.336-1.33-.336-2.286h4.35v-2.31h-4.35v-2.59h5.046V9.513h-8.05v7.267c0 1.714.263 3.246.935 3.978.87.904 2.357 1.242 4.326 1.242 1.033 0 2.14-.182 2.833-.545v-2.159a8.433 8.433 0 01-2.542.392zm-52.508-.673c-.312-.493-.337-1.33-.337-2.286h4.352v-2.311h-4.352v-2.589H22.5V9.513h-8.047v7.267c0 1.714.26 3.246.934 3.973.866.91 2.354 1.247 4.325 1.247 1.034 0 2.137-.183 2.834-.546v-2.158a8.468 8.468 0 01-2.547.392c-1.15 0-1.848-.105-2.21-.673zm9.562-6.023c-.368-.255-.292-1.263 0-1.49.294-.23.734-.301 1.543-.301 1.226 0 2.25.225 3.307.553V9.602c-.491-.306-1.717-.683-3.452-.683-1.398 0-2.719.202-3.701 1.162-.905.889-1.1 3.951-.095 5.039 1.028 1.116 3.768 1.521 4.75 2.208.367.25.268 1.264 0 1.489-.245.21-.735.332-1.544.332-1.224 0-2.424-.252-3.55-.582v2.18c.565.328 1.737.658 3.598.658 1.274 0 2.816-.253 3.722-.962 1.177-.937 1.42-3.878.295-5.145-.978-1.117-3.895-1.622-4.873-2.306zm10.405 5.519c-.338-.534-.433-1.625-.433-3.352 0-1.724.095-2.79.433-3.348.31-.504 1.103-.629 1.943-.629.77 0 1.491.099 2.262.378V9.427c-.625-.33-1.589-.508-2.476-.508-1.66 0-3.313.253-4.226 1.245-.864.942-1.152 2.913-1.152 4.995 0 2.078.288 4.037 1.152 4.977.913 1.016 2.567 1.27 4.226 1.27.816 0 1.681-.127 2.257-.432l.459-2.212c-.843.28-1.564.383-2.502.383-.84 0-1.634-.123-1.943-.634zm17.741 1.466c0 1.79 1.402 2.023 3.024 2.023v-5.27h4.633v-2.31H58.52v-2.59h5.069V9.513h-8.093v10.464zm20.065.184h.123c.144 0 .261-.05.261-.171 0-.108-.076-.183-.24-.183a.512.512 0 00-.144.016v.338zm-.008.665h-.26v-1.182c.102-.016.247-.037.432-.037.213 0 .31.037.385.093.067.05.116.136.116.253 0 .145-.104.24-.234.282v.015c.11.036.166.127.2.289a.985.985 0 00.084.287H76c-.036-.042-.055-.143-.09-.287-.02-.124-.088-.182-.233-.182h-.124v.469zm-.693-.614c0 .529.377.946.877.946.489.01.859-.417.859-.939 0-.526-.37-.952-.87-.952-.489 0-.866.426-.866.945zm2.024 0c0 .667-.508 1.194-1.153 1.194-.644 0-1.16-.527-1.16-1.194 0-.664.516-1.185 1.166-1.185.64 0 1.147.521 1.147 1.185z"/></g><defs><clipPath id="na"><path d="M0 0h77v22H0z"/></clipPath></defs></symbol><symbol viewBox="0 0 18 18" id="mail" xmlns="http://www.w3.org/2000/svg"><path d="M16.313 2.25H1.688C.755 2.25 0 3.006 0 3.938v10.124c0 .933.756 1.688 1.688 1.688h14.624c.932 0 1.688-.755 1.688-1.688V3.938c0-.932-.756-1.688-1.688-1.688zm-.405 1.125L9 8.308 2.092 3.375h13.816zm.967 10.688c0 .31-.252.562-.563.562H1.688a.562.562 0 01-.562-.563V4.068l7.549 5.389a.562.562 0 00.652 0l7.549-5.39v9.997z"/></symbol><symbol viewBox="0 0 39 55" id="play" xmlns="http://www.w3.org/2000/svg"><path d="M36.126 22.393L7.281 1.478C5.95.512 4.607 0 3.491 0 1.334 0 0 1.833 0 4.902v45.203C0 53.17 1.333 55 3.484 55c1.118 0 2.438-.512 3.774-1.481l28.858-20.914C37.972 31.257 39 29.445 39 27.498c0-1.946-1.016-3.759-2.874-5.105z"/></symbol><symbol viewBox="0 0 18 18" id="twitter" xmlns="http://www.w3.org/2000/svg"><g clip-path="url(#qa)"><path d="M16.15 5.335A7.367 7.367 0 0018 3.419 7.707 7.707 0 0115.874 4a3.67 3.67 0 001.623-2.039 7.38 7.38 0 01-2.34.893 3.689 3.689 0 00-6.383 2.523c0 .293.025.574.086.842a10.448 10.448 0 01-7.607-3.86 3.721 3.721 0 00-.505 1.865c0 1.278.657 2.41 1.64 3.067A3.648 3.648 0 01.72 6.837v.04a3.707 3.707 0 002.957 3.627 3.694 3.694 0 01-.968.121c-.236 0-.475-.013-.698-.063a3.726 3.726 0 003.447 2.571 7.417 7.417 0 01-4.575 1.574c-.302 0-.593-.014-.883-.05a10.392 10.392 0 005.661 1.655c6.512 0 10.757-5.433 10.49-10.977z"/></g><defs><clipPath id="qa"><path d="M0 0h18v18H0z"/></clipPath></defs></symbol><symbol viewBox="0 0 18 18" id="youtube" xmlns="http://www.w3.org/2000/svg"><path d="M17.081 4.782a2.114 2.114 0 00-1.487-1.487c-1.32-.362-6.603-.362-6.603-.362s-5.281 0-6.602.348A2.157 2.157 0 00.902 4.782C.554 6.102.554 8.841.554 8.841s0 2.752.348 4.059a2.114 2.114 0 001.487 1.487c1.334.361 6.603.361 6.603.361s5.282 0 6.602-.347a2.114 2.114 0 001.488-1.487c.347-1.32.347-4.06.347-4.06s.014-2.751-.348-4.072zM7.31 11.371V6.31l4.392 2.53-4.392 2.53z"/></symbol></svg>