<svg width="39" height="39" viewBox="0 0 39 39" fill="none" xmlns="http://www.w3.org/2000/svg">
<path d="M38.1768 3.32126L38.3536 3.14446L38.1768 2.96769L36.0318 0.823203L35.855 0.646461L35.6782 0.823229L19.5 17.0025L3.32169 0.823229L3.14493 0.646459L2.96815 0.823206L0.823241 2.96769L0.646435 3.14446L0.823217 3.32125L17.0015 19.5007L0.823224 35.6788L0.646425 35.8556L0.823244 36.0324L2.96816 38.1768L3.14493 38.3535L3.32169 38.1768L19.5 21.9986L35.6783 38.1768L35.855 38.3535L36.0318 38.1768L38.1768 36.0324L38.3536 35.8556L38.1768 35.6788L21.9973 19.5007L38.1768 3.32126Z" fill="white" stroke="white" stroke-width="0.5"/>
</svg>
