<svg width="7" height="369" viewBox="0 0 7 369" fill="none" xmlns="http://www.w3.org/2000/svg">
<path d="M0.451387 71.1269C0.848031 71.4686 0.697307 72.3113 1.06222 72.7554C0.879763 70.9789 0.415689 69.4471 0.522783 67.716C0.574347 66.9189 0.383957 65.6148 0.85993 65.5237C1.3359 65.4326 1.16138 66.748 1.25658 67.4484C1.30021 67.7274 1.30417 68.0178 1.3478 68.3253C1.39143 68.6328 1.27244 69.2592 1.59769 69.2193C1.73744 69.1869 1.8699 69.1075 1.9843 68.9878C2.0987 68.8681 2.19183 68.7114 2.25612 68.5303C2.31999 68.3604 2.34765 68.1671 2.33566 67.9748C2.32367 67.7824 2.27256 67.5994 2.18869 67.4484C2.0992 67.2823 2.00109 67.1263 1.89517 66.9815C1.07412 65.7458 1.12172 64.7664 2.0459 64.0034C2.0459 63.5308 1.83568 63.5137 1.68892 63.377C0.8163 62.5627 0.816299 62.5627 1.49059 61.1392C1.56386 61.0105 1.61527 60.8592 1.64074 60.6971C1.66621 60.535 1.66505 60.3667 1.63735 60.2053L1.18915 57.6315C0.725071 58.2636 1.03049 59.3398 0.713172 60.063C0.43696 59.4879 0.323512 58.7835 0.395856 58.0927C0.427587 54.2548 0.221332 50.434 0.122171 46.6075C0.0692445 45.8164 0.114911 45.0181 0.25703 44.25C0.465372 43.3051 0.465372 42.2909 0.25703 41.346C0.0720577 40.5456 0.0364996 39.6895 0.153902 38.8633C0.31256 37.9294 0.153902 36.8589 0.233231 36.0901C0.411721 34.1541 -0.00872238 32.3718 0.142002 30.4984C0.276199 28.7148 0.293462 26.917 0.193566 25.1287C0.138036 24.0639 0.292727 23.0275 0.257029 22.0253C0.153901 18.8309 0.336358 15.6478 0.324458 12.459C0.300659 8.30222 0.324458 4.14539 0.550545 -3.05416e-05C0.947189 -3.0559e-05 0.947189 0.569427 1.07808 0.899689C1.20897 1.22995 1.39143 1.6741 1.70478 1.55453C1.87137 1.48621 2.07366 0.922485 2.21645 1.55453C2.26654 1.75885 2.27252 1.98013 2.23359 2.18939C2.19467 2.39868 2.11267 2.58624 1.9983 2.72754C1.27244 3.33682 1.37557 4.37888 1.45886 5.57468C1.5765 6.60504 1.54681 7.659 1.3716 8.67236C1.19708 9.46954 1.43506 10.1016 1.67702 11.0298C1.91104 9.56064 2.20059 8.38763 2.86695 7.74988C3.06924 7.5506 2.97008 7.0267 2.95024 6.61102C2.95024 6.37189 2.91058 6.07578 3.08907 6.0416C3.26756 6.00745 3.30326 6.24658 3.34689 6.49145C3.71577 8.44458 3.19616 12.1857 2.35528 13.6035C2.17055 13.8813 2.04831 14.2324 2.00445 14.6112C1.9606 14.99 1.99715 15.3789 2.10936 15.7275C2.61706 16.9802 2.37511 18.5746 2.70829 19.8672C2.81935 20.3 2.88282 21.1712 2.56153 21.4844C2.24025 21.7976 2.21249 20.8751 1.87137 20.6872L1.87137 24.5821C1.3478 23.9272 1.33987 22.8738 0.943224 22.2076C0.879761 23.5514 0.943224 24.7529 1.4311 25.5899C2.29975 27.1103 1.85947 29.0065 1.915 30.7774C1.91851 30.8535 1.91065 30.9298 1.89196 31.0012C1.87327 31.0725 1.84417 31.1373 1.80661 31.1912C1.76906 31.2451 1.72391 31.2869 1.6742 31.3138C1.62449 31.3406 1.57135 31.3519 1.51836 31.3469C1.28037 31.3753 1.12171 31.1361 1.06222 30.7091C0.990822 30.1055 0.95909 29.4734 0.859929 28.8471C0.776216 29.6389 0.66368 30.4239 0.522781 31.1988C0.344291 31.9732 0.348258 32.8217 1.05825 32.5426C1.66512 32.3092 2.14109 33.4252 1.99433 34.5983C1.98878 34.69 1.97409 34.7802 1.9507 34.8659C1.09792 34.9741 1.55406 36.2781 1.46283 37.0183C1.33194 37.9749 1.32797 38.9885 1.02255 39.8654C0.952928 40.0386 0.916273 40.235 0.916273 40.4349C0.916273 40.6348 0.952928 40.8312 1.02255 41.0043C1.16931 41.3858 1.3478 41.2036 1.50646 41.0555C1.87931 40.7025 1.95863 41.2492 2.13712 41.699C2.85902 43.5269 2.93041 45.6451 2.90662 47.8032L2.90662 49.7108C3.20807 49.4432 2.94231 48.6915 3.23186 48.72C3.52141 48.7485 3.46192 49.2894 3.51745 49.6539C3.70784 50.9123 3.8427 52.165 3.49365 53.4235C3.43033 53.6521 3.40216 53.8976 3.41106 54.1433C3.41996 54.389 3.46572 54.6291 3.54521 54.847C3.70376 55.3367 3.79017 55.8682 3.79905 56.4081C3.80792 56.9479 3.73906 57.4846 3.59678 57.9846C3.20013 57.9105 3.33103 57.0678 3.03354 56.709C2.78366 60.695 2.6131 64.5273 3.82683 68.0178C3.96962 68.4221 4.3504 69.0826 3.69197 69.1965C3.44605 69.2421 3.50952 69.6179 3.53728 69.8685C3.55439 70.097 3.62097 70.3121 3.72767 70.4835C5.13179 72.1917 5.20319 74.868 5.0247 77.6069C4.83034 80.6078 5.59587 83.2386 5.73073 86.1028C5.90525 89.7926 5.70296 93.4768 5.79816 97.161C5.00487 99.1198 5.58 100.999 5.88145 102.895C5.91167 103.082 5.92368 103.273 5.91715 103.465C5.699 109.694 6.1948 115.878 6.15514 122.108C6.11151 128.872 6.28206 135.648 6.26223 142.425C6.26223 145.927 6.18687 149.44 6.29 152.936C6.39312 156.518 6.43279 160.105 6.38123 163.681C6.27017 171.46 6.73027 179.215 6.55178 186.982C6.41693 192.676 6.52799 198.336 6.52799 204.008C6.55729 204.402 6.5385 204.801 6.47246 205.187C5.94492 206.895 6.27017 208.649 6.45262 210.38C6.58666 211.203 6.57027 212.062 6.40503 212.874C6.00838 214.343 6.19084 215.772 6.23447 217.31C6.41693 223.323 6.2781 229.347 6.17497 235.372C6.17497 235.941 6.11944 236.459 6.11944 237.006C6.11944 248.019 6.02028 259.031 6.11945 270.033C6.22257 280.282 6.19481 290.566 6.28207 300.833C6.3733 312.341 6.53989 323.849 6.73821 335.352C6.84134 341.376 6.96827 347.395 7 353.425C6.99829 356.991 6.77931 360.551 6.34554 364.062C6.00046 367.091 4.95331 368.697 3.35484 368.845C3.20269 368.82 3.04875 368.83 2.8987 368.874C2.153 369.341 1.78413 368.429 1.30419 367.518C0.078554 365.229 0.352239 362.274 0.221346 359.484C1.35575 354.746 0.733017 349.804 0.736983 344.884C0.736983 343.392 0.713184 341.894 0.713184 340.402C0.701284 329.635 0.395868 318.889 0.118216 308.144C-0.0523415 301.311 -0.0444089 294.529 0.181678 287.691C0.459329 279.497 0.344302 271.251 0.391899 263.029C0.459328 252.563 0.487092 242.097 0.590219 231.631C0.733011 216.934 0.776641 202.231 0.923399 187.534C0.96703 183.11 0.951164 178.68 0.923398 174.267C0.923398 165.002 0.852001 155.732 0.840102 146.468C0.840102 142.578 0.681444 138.706 0.665578 134.823C0.625913 125.951 0.665577 117.074 0.475187 108.214C0.352227 102.434 0.407757 96.6599 0.320495 90.8859C0.257032 86.5754 0.399824 82.225 0.340327 77.8916C0.328427 75.6595 0.126139 73.4331 0.451387 71.1269Z" fill="white"/>
</svg>
