<svg width="526" height="7" viewBox="0 0 526 7" fill="none" xmlns="http://www.w3.org/2000/svg">
<path d="M424.61 0.4514C424.123 0.848044 422.922 0.69732 422.289 1.06223C424.821 0.879776 427.005 0.415702 429.473 0.522796C430.609 0.57436 432.468 0.38397 432.598 0.859944C432.727 1.33592 430.852 1.16139 429.854 1.25659C429.456 1.30022 429.042 1.30419 428.604 1.34782C428.166 1.39145 427.273 1.27245 427.33 1.5977C427.376 1.73746 427.489 1.86991 427.66 1.98431C427.83 2.09871 428.054 2.19184 428.312 2.25613C428.554 2.32 428.829 2.34766 429.104 2.33568C429.378 2.32369 429.639 2.27258 429.854 2.1887C430.091 2.09922 430.313 2.0011 430.52 1.89519C432.281 1.07413 433.677 1.12173 434.765 2.04591C435.439 2.04591 435.463 1.83569 435.658 1.68893C436.818 0.816313 436.818 0.816313 438.848 1.49061C439.031 1.56388 439.247 1.61528 439.478 1.64075C439.709 1.66623 439.949 1.66507 440.179 1.63737L443.848 1.18916C442.947 0.725085 441.413 1.0305 440.382 0.713185C441.202 0.436973 442.206 0.323526 443.19 0.39587C448.661 0.427601 454.108 0.221346 459.562 0.122185C460.69 0.0692587 461.828 0.114925 462.923 0.257044C464.27 0.465386 465.715 0.465386 467.062 0.257044C468.203 0.0720721 469.424 0.036514 470.601 0.153917C471.933 0.312574 473.459 0.153917 474.554 0.233245C477.314 0.411735 479.855 -0.00870766 482.525 0.142017C485.068 0.276214 487.631 0.293477 490.18 0.193581C491.698 0.138051 493.175 0.292742 494.603 0.257044C499.157 0.153917 503.694 0.336373 508.24 0.324474C514.165 0.300675 520.091 0.324474 526 0.550561C526 0.947205 525.188 0.947205 524.718 1.0781C524.247 1.20899 523.614 1.39145 523.784 1.7048C523.881 1.87139 524.685 2.07368 523.784 2.21647C523.493 2.26656 523.177 2.27253 522.879 2.23361C522.581 2.19469 522.313 2.11268 522.112 1.99831C521.243 1.27245 519.758 1.37558 518.053 1.45888C516.585 1.57652 515.082 1.54683 513.638 1.37162C512.501 1.19709 511.6 1.43508 510.277 1.67703C512.372 1.91105 514.044 2.2006 514.953 2.86696C515.237 3.06925 515.984 2.97009 516.576 2.95026C516.917 2.95026 517.339 2.9106 517.388 3.08909C517.437 3.26758 517.096 3.30327 516.747 3.3469C513.962 3.71578 508.63 3.19618 506.608 2.35529C506.213 2.17057 505.712 2.04833 505.172 2.00447C504.632 1.96061 504.078 1.99716 503.581 2.10937C501.795 2.61708 499.522 2.37513 497.68 2.70831C497.063 2.81937 495.821 2.88283 495.375 2.56155C494.928 2.24027 496.243 2.2125 496.511 1.87139H490.959C491.892 1.34782 493.394 1.33988 494.344 0.943239C492.428 0.879776 490.715 0.943239 489.522 1.43111C487.355 2.29976 484.652 1.85949 482.128 1.91502C482.019 1.91852 481.91 1.91067 481.809 1.89197C481.707 1.87328 481.615 1.84418 481.538 1.80663C481.461 1.76907 481.401 1.72393 481.363 1.67421C481.325 1.6245 481.309 1.57137 481.316 1.51837C481.275 1.28039 481.616 1.12173 482.225 1.06223C483.085 0.990836 483.986 0.959105 484.879 0.859944C483.75 0.776231 482.632 0.663694 481.527 0.522796C480.423 0.344306 479.214 0.348272 479.611 1.05827C479.944 1.66513 478.353 2.14111 476.681 1.99435C476.55 1.9888 476.422 1.97411 476.3 1.95072C476.145 1.09793 474.287 1.55407 473.231 1.46284C471.868 1.33195 470.423 1.32798 469.173 1.02257C468.926 0.952942 468.646 0.916287 468.361 0.916287C468.076 0.916287 467.796 0.952942 467.549 1.02257C467.006 1.16933 467.265 1.34782 467.476 1.50647C467.98 1.87932 467.2 1.95865 466.559 2.13714C463.954 2.85903 460.934 2.93043 457.858 2.90663H455.138C455.52 3.20808 456.591 2.94233 456.551 3.23188C456.51 3.52143 455.739 3.46193 455.22 3.51746C453.426 3.70785 451.64 3.84271 449.846 3.49366C449.52 3.43034 449.17 3.40217 448.82 3.41107C448.47 3.41997 448.128 3.46573 447.817 3.54523C447.119 3.70377 446.361 3.79019 445.592 3.79906C444.822 3.80793 444.057 3.73907 443.344 3.59679C443.45 3.20015 444.651 3.33104 445.163 3.03356C439.481 2.78367 434.018 2.61311 429.042 3.82684C428.466 3.96964 427.524 4.35042 427.362 3.69199C427.297 3.44607 426.761 3.50953 426.404 3.53729C426.079 3.5544 425.772 3.62099 425.528 3.72768C423.093 5.1318 419.278 5.2032 415.373 5.02471C411.096 4.83036 407.346 5.59588 403.263 5.73074C398.003 5.90526 392.751 5.70297 387.5 5.79817C384.707 5.00488 382.029 5.58001 379.326 5.88146C379.06 5.91168 378.787 5.92369 378.514 5.91716C369.634 5.69901 360.819 6.19481 351.939 6.15515C342.296 6.11152 332.637 6.28207 322.977 6.26224C317.985 6.26224 312.977 6.18688 307.993 6.29001C302.888 6.39313 297.774 6.4328 292.677 6.38124C281.589 6.27017 270.533 6.73028 259.462 6.55179C251.345 6.41693 243.276 6.52799 235.192 6.52799C234.63 6.5573 234.061 6.53851 233.512 6.47246C231.077 5.94493 228.577 6.27017 226.109 6.45263C224.935 6.58667 223.711 6.57027 222.554 6.40503C220.46 6.00839 218.422 6.19085 216.231 6.23448C207.659 6.41693 199.071 6.27811 190.483 6.17498C189.672 6.17498 188.933 6.11945 188.154 6.11945C172.456 6.11945 156.757 6.02029 141.075 6.11945C126.465 6.22258 111.805 6.19481 97.1703 6.28207C80.7658 6.3733 64.3614 6.53989 47.965 6.73821C39.3772 6.84134 30.7975 6.96827 22.2016 7C17.118 6.99829 12.0445 6.77931 7.03905 6.34554C2.7208 6.00046 0.431801 4.95331 0.220758 3.35484C0.256414 3.20269 0.242717 3.04875 0.180173 2.8987C-0.485421 2.153 0.8133 1.78413 2.11202 1.30419C5.37506 0.0785541 9.58779 0.352239 13.5651 0.221346C20.3185 1.35575 27.364 0.733018 34.3771 0.736984C36.5038 0.736984 38.6386 0.713185 40.7652 0.713185C56.1145 0.701286 71.4313 0.39587 86.7481 0.118219C96.4885 -0.0523386 106.156 -0.0444057 115.904 0.181682C127.585 0.459333 139.338 0.344306 151.059 0.391903C165.978 0.459333 180.897 0.487098 195.816 0.590225C216.766 0.733018 237.724 0.776648 258.674 0.923407C264.981 0.967038 271.296 0.951172 277.587 0.923407C290.793 0.923407 304.008 0.852011 317.214 0.840111C322.758 0.840111 328.278 0.681454 333.814 0.665588C346.46 0.625923 359.114 0.665588 371.744 0.475199C379.983 0.352239 388.214 0.407769 396.444 0.320507C402.589 0.257044 408.79 0.399836 414.967 0.340339C418.149 0.32844 421.323 0.126151 424.61 0.4514Z" fill="white"/>
</svg>
