<svg width="77" height="22" viewBox="0 0 77 22" fill="none" xmlns="http://www.w3.org/2000/svg">
<g clip-path="url(#clip0)">
<mask id="mask0" mask-type="alpha" maskUnits="userSpaceOnUse" x="66" y="0" width="8" height="8">
<path d="M66.0923 0.335449H73.6967V7.68666H66.0923V0.335449Z" fill="white"/>
</mask>
<g mask="url(#mask0)">
<path opacity="0.9" fill-rule="evenodd" clip-rule="evenodd" d="M69.4101 2.78755C69.2069 4.10395 68.773 5.37499 67.8183 6.4427C67.3632 6.94916 66.7083 7.48285 66.0923 7.68651H68.7057C69.5057 7.68651 71.0708 7.26608 71.8981 6.34927C73.3985 4.66889 73.3748 2.82653 73.6967 0.335205H71.4459C70.8769 0.335205 69.7818 0.36646 69.4101 2.78755Z" fill="#EB2227"/>
</g>
<path fill-rule="evenodd" clip-rule="evenodd" d="M46.9311 17.1648C47.3305 15.5704 47.8515 13.9328 48.4502 12.4448C49.0978 13.7804 49.6211 15.4457 50.07 17.1648H46.9311ZM50.5946 9.51343H47.0277C45.5429 12.2535 44.3517 16.3875 43.356 21.4053H46.1177C46.2146 20.6953 46.337 19.9408 46.5048 19.1615H50.5205C50.6863 19.9408 50.8309 20.7171 50.9523 21.4053H54.3394C53.42 17.0787 51.958 12.2505 50.5946 9.51343Z" fill="#222222"/>
<mask id="mask1" mask-type="alpha" maskUnits="userSpaceOnUse" x="0" y="4" width="64" height="18">
<path d="M0 4.85718H63.4935V21.3834H0V4.85718Z" fill="white"/>
</mask>
<g mask="url(#mask1)">
<path fill-rule="evenodd" clip-rule="evenodd" d="M60.1291 7.3264H12.6071V21.1673C12.3642 21.3162 11.6571 21.3834 11.1022 21.3834C9.22861 21.3834 8.55107 20.7606 7.55401 18.9109L2.74544 10.1211V21.1383H0V5.0821C0.243862 4.93454 0.946198 4.85718 1.50323 4.85718C3.37592 4.85718 4.05409 5.4833 5.05275 7.3264L9.88326 16.1042V5.10952H63.4935C63.4935 6.66927 60.9083 7.3264 60.1291 7.3264Z" fill="#222222"/>
</g>
<path fill-rule="evenodd" clip-rule="evenodd" d="M70.2958 19.6879C69.1412 19.6879 68.4431 19.5833 68.0836 19.0147C67.7698 18.5225 67.7484 17.6856 67.7484 16.7288H72.0971V14.4182H67.7484V11.8294H72.794V9.51343H64.7446V16.7798C64.7446 18.4937 65.0075 20.0264 65.6786 20.7577C66.5484 21.6621 68.0358 21.9999 70.0047 21.9999C71.038 21.9999 72.1449 21.8181 72.8377 21.4548V19.2961C71.9993 19.5618 71.1367 19.6879 70.2958 19.6879Z" fill="#222222"/>
<path fill-rule="evenodd" clip-rule="evenodd" d="M17.7885 19.0147C17.476 18.5222 17.4514 17.6856 17.4514 16.7288H21.8034V14.4178H17.4514V11.8294H22.499V9.51343H14.4521V16.7798C14.4521 18.4937 14.7116 20.0264 15.3855 20.753C16.2518 21.6621 17.7398 21.9999 19.7114 21.9999C20.7453 21.9999 21.8478 21.8174 22.5452 21.4545V19.2961C21.7047 19.5618 20.8406 19.6879 19.9985 19.6879C18.8488 19.6879 18.1498 19.5826 17.7885 19.0147Z" fill="#222222"/>
<path fill-rule="evenodd" clip-rule="evenodd" d="M27.3499 12.9924C26.9819 12.7367 27.0576 11.7287 27.3499 11.5029C27.6444 11.2717 28.0842 11.201 28.8929 11.201C30.1188 11.201 31.1433 11.4259 32.2003 11.7543V9.60151C31.7089 9.2964 30.4827 8.91895 28.748 8.91895C27.3499 8.91895 26.029 9.1206 25.0467 10.0814C24.1418 10.9696 23.9476 14.0321 24.9521 15.1196C25.9797 16.2363 28.7204 16.6412 29.7025 17.3281C30.0688 17.5788 29.9698 18.5924 29.7025 18.8169C29.4566 19.0261 28.9672 19.1489 28.1582 19.1489C26.9342 19.1489 25.7338 18.8968 24.6082 18.5665V20.7474C25.1729 21.0751 26.3454 21.4054 28.2063 21.4054C29.4801 21.4054 31.0218 21.152 31.9282 20.4426C33.1045 19.5057 33.3484 16.565 32.223 15.2977C31.2451 14.1811 28.3284 13.6759 27.3499 12.9924Z" fill="#222222"/>
<path fill-rule="evenodd" clip-rule="evenodd" d="M37.7547 18.5113C37.4173 17.9774 37.322 16.8862 37.322 15.1587C37.322 13.4346 37.4173 12.3699 37.7547 11.8111C38.0644 11.3073 38.858 11.182 39.6984 11.182C40.4681 11.182 41.189 11.281 41.96 11.5602V9.42731C41.3346 9.09769 40.3712 8.91895 39.4843 8.91895C37.8248 8.91895 36.1709 9.17182 35.2579 10.1643C34.3941 11.1056 34.1064 13.0774 34.1064 15.1587C34.1064 17.2368 34.3941 19.1962 35.2579 20.1362C36.1709 21.1519 37.8248 21.4054 39.4843 21.4054C40.3002 21.4054 41.1654 21.2792 41.7411 20.9738L42.1995 18.7622C41.3566 19.042 40.6363 19.145 39.6984 19.145C38.858 19.145 38.0644 19.022 37.7547 18.5113Z" fill="#222222"/>
<path fill-rule="evenodd" clip-rule="evenodd" d="M55.4956 19.9767C55.4956 21.7667 56.8985 21.9999 58.5198 21.9999V16.7295H63.1527V14.4191H58.5198V11.8299H63.5887V9.51343H55.4956V19.9767Z" fill="#222222"/>
<path fill-rule="evenodd" clip-rule="evenodd" d="M75.5613 20.1613H75.6839C75.8282 20.1613 75.9452 20.1113 75.9452 19.99C75.9452 19.8815 75.8687 19.8073 75.7045 19.8073C75.6361 19.8073 75.5882 19.815 75.5613 19.8234V20.1613ZM75.5529 20.8257H75.2924V19.644C75.3947 19.6282 75.5397 19.6073 75.7255 19.6073C75.9375 19.6073 76.035 19.644 76.1097 19.6995C76.1775 19.7492 76.2257 19.8363 76.2257 19.9532C76.2257 20.0977 76.1223 20.1922 75.992 20.2349V20.2496C76.1024 20.2863 76.1576 20.3771 76.1921 20.5389C76.2257 20.718 76.254 20.7838 76.276 20.8257H76C75.9644 20.7838 75.9452 20.683 75.9106 20.5389C75.89 20.4154 75.8215 20.3573 75.6773 20.3573H75.5529V20.8257ZM74.8596 20.2124C74.8596 20.7408 75.2372 21.1584 75.7374 21.1584C76.2257 21.1672 76.5956 20.7408 76.5956 20.219C76.5956 19.6933 76.2257 19.2672 75.7255 19.2672C75.2372 19.2672 74.8596 19.6933 74.8596 20.2124ZM76.8841 20.2124C76.8841 20.8786 76.3762 21.4055 75.7314 21.4055C75.087 21.4055 74.5718 20.8786 74.5718 20.2124C74.5718 19.5484 75.087 19.0271 75.7374 19.0271C76.3762 19.0271 76.8841 19.5484 76.8841 20.2124Z" fill="#222222"/>
</g>
<defs>
<clipPath id="clip0">
<rect width="77" height="22" fill="white"/>
</clipPath>
</defs>
</svg>
