<svg width="18" height="18" viewBox="0 0 18 18" fill="none" xmlns="http://www.w3.org/2000/svg">
<path d="M16.3125 2.25H1.6875C0.755508 2.25 0 3.00551 0 3.9375V14.0625C0 14.9945 0.755508 15.75 1.6875 15.75H16.3125C17.2445 15.75 18 14.9945 18 14.0625V3.9375C18 3.00551 17.2445 2.25 16.3125 2.25ZM15.9075 3.375L9 8.30813L2.0925 3.375H15.9075ZM16.875 14.0625C16.875 14.3732 16.6232 14.625 16.3125 14.625H1.6875C1.37682 14.625 1.125 14.3732 1.125 14.0625V4.06687L8.67375 9.45562C8.86904 9.59467 9.13096 9.59467 9.32625 9.45562L16.875 4.06687V14.0625Z" fill="white"/>
</svg>
