<svg width="18" height="18" viewBox="0 0 18 18" fill="none" xmlns="http://www.w3.org/2000/svg">
<path d="M17.0815 4.78214C16.887 4.05921 16.317 3.48933 15.5942 3.29466C14.2737 2.93335 8.99149 2.93335 8.99149 2.93335C8.99149 2.93335 3.70951 2.93335 2.38898 3.28096C1.68006 3.47542 1.09617 4.05931 0.901711 4.78214C0.554199 6.10256 0.554199 8.84094 0.554199 8.84094C0.554199 8.84094 0.554199 11.5931 0.901711 12.8997C1.09637 13.6226 1.66615 14.1924 2.38909 14.3871C3.72341 14.7485 8.9917 14.7485 8.9917 14.7485C8.9917 14.7485 14.2737 14.7485 15.5942 14.4009C16.3171 14.2063 16.887 13.6365 17.0817 12.9136C17.4291 11.5931 17.4291 8.85484 17.4291 8.85484C17.4291 8.85484 17.443 6.10256 17.0815 4.78214ZM7.30976 11.3707V6.31113L11.7022 8.84094L7.30976 11.3707Z" fill="white"/>
</svg>
